<svg xmlns="http://www.w3.org/2000/svg" width="168" height="112" fill="none"><g clip-path="url(#a)"><path fill="#1877F2" d="M112 56c0-15.464-12.536-28-28-28S56 40.536 56 56c0 13.975 10.24 25.56 23.625 27.66V64.094h-7.11V56h7.11v-6.169c0-7.017 4.18-10.894 10.576-10.894 3.063 0 6.268.547 6.268.547v6.891h-3.53c-3.479 0-4.564 2.158-4.564 4.375V56h7.766l-1.242 8.094h-6.524V83.66C101.761 81.56 112 69.975 112 56Z"/><path fill="#fff" d="M94.9 64.094 96.14 56h-7.765v-5.25c0-2.214 1.085-4.375 4.563-4.375h3.53v-6.89s-3.203-.547-6.267-.547c-6.396 0-10.576 3.876-10.576 10.893V56h-7.11v8.094h7.11V83.66c2.899.453 5.851.453 8.75 0V64.094h6.524Z"/></g><defs><clipPath id="a"><path fill="#fff" d="M56 28h56v56H56z"/></clipPath></defs></svg>