<svg xmlns="http://www.w3.org/2000/svg" width="168" height="112" fill="none"><g clip-path="url(#a)"><path fill="#FF004F" d="M96.941 47.659a23.405 23.405 0 0 0 13.69 4.396v-9.858c-.966 0-1.929-.101-2.875-.302v7.76a23.41 23.41 0 0 1-13.69-4.397v20.12c0 10.064-8.13 18.222-18.157 18.222-3.742 0-7.22-1.135-10.109-3.082A18.072 18.072 0 0 0 78.783 86c10.028 0 18.159-8.158 18.159-18.223V47.659Zm3.547-9.947a13.763 13.763 0 0 1-3.547-8.044V28.4h-2.724a13.803 13.803 0 0 0 6.271 9.313ZM72.143 72.794a8.32 8.32 0 0 1-1.695-5.046c0-4.603 3.719-8.335 8.307-8.335.855 0 1.704.131 2.52.39V49.724a18.268 18.268 0 0 0-2.875-.166v7.845a8.287 8.287 0 0 0-2.52-.39c-4.588 0-8.306 3.732-8.306 8.335a8.338 8.338 0 0 0 4.569 7.447Z"/><path fill="#000" d="M94.066 45.258a23.41 23.41 0 0 0 13.69 4.397v-7.76a13.728 13.728 0 0 1-7.268-4.183 13.804 13.804 0 0 1-6.271-9.312H87.06v39.376c-.016 4.591-3.728 8.308-8.306 8.308a8.284 8.284 0 0 1-6.612-3.29 8.338 8.338 0 0 1-4.569-7.445c0-4.604 3.718-8.336 8.306-8.336.879 0 1.726.137 2.52.39V49.56c-9.851.204-17.774 8.282-17.774 18.218 0 4.96 1.973 9.456 5.175 12.74A18.026 18.026 0 0 0 75.91 83.6c10.028 0 18.157-8.159 18.157-18.223V45.258Z"/><path fill="#00F2EA" d="M107.756 41.895v-2.099a13.65 13.65 0 0 1-7.268-2.084 13.718 13.718 0 0 0 7.268 4.182ZM94.216 28.4a14.143 14.143 0 0 1-.15-1.132V26h-9.881v39.377c-.016 4.59-3.728 8.307-8.306 8.307a8.249 8.249 0 0 1-3.737-.89 8.285 8.285 0 0 0 6.612 3.29c4.578 0 8.29-3.717 8.306-8.307V28.4h7.157ZM78.4 49.559v-2.234a18.26 18.26 0 0 0-2.491-.17c-10.03 0-18.159 8.158-18.159 18.222 0 6.31 3.195 11.87 8.05 15.14a18.194 18.194 0 0 1-5.175-12.74c0-9.936 7.923-18.014 17.775-18.218Z"/></g><defs><clipPath id="a"><path fill="#fff" d="M56 26h56v60H56z"/></clipPath></defs></svg>