<svg xmlns="http://www.w3.org/2000/svg" width="168" height="112" fill="none"><g clip-path="url(#a)"><path fill="#FF0302" d="M110.885 40.433a7.041 7.041 0 0 0-4.951-4.983c-4.378-1.177-21.879-1.177-21.879-1.177s-17.5 0-21.878 1.177a7.037 7.037 0 0 0-4.95 4.983C56.056 44.83 56.056 54 56.056 54s0 9.17 1.17 13.567a7.038 7.038 0 0 0 4.951 4.983c4.378 1.177 21.878 1.177 21.878 1.177s17.501 0 21.879-1.177a7.04 7.04 0 0 0 4.951-4.983C112.056 63.17 112.056 54 112.056 54s0-9.17-1.171-13.567Z"/><path fill="#FEFEFE" d="M78.328 62.327V45.673L92.965 54l-14.637 8.327Z"/></g><defs><clipPath id="a"><path fill="#fff" d="M56 26h56v56H56z"/></clipPath></defs></svg>